<svg width="86" height="22" viewBox="0 0 86 22" fill="none" xmlns="http://www.w3.org/2000/svg">
<path d="M5.859 16.221H14.175C14.589 16.221 14.895 16.239 15.093 16.275C15.309 16.293 15.552 16.374 15.822 16.518C16.308 16.77 16.551 17.472 16.551 18.624C16.551 19.884 16.218 20.622 15.552 20.838C15.246 20.946 14.778 21 14.148 21H3.456C2.196 21 1.458 20.658 1.242 19.974C1.134 19.686 1.08 19.227 1.08 18.597V3.585C1.08 2.667 1.251 2.046 1.593 1.722C1.935 1.38 2.583 1.209 3.537 1.209H14.175C14.589 1.209 14.895 1.227 15.093 1.263C15.309 1.281 15.552 1.362 15.822 1.506C16.308 1.758 16.551 2.46 16.551 3.612C16.551 4.872 16.218 5.61 15.552 5.826C15.246 5.934 14.778 5.988 14.148 5.988H5.859V8.715H11.205C11.619 8.715 11.925 8.733 12.123 8.769C12.339 8.787 12.582 8.868 12.852 9.012C13.338 9.264 13.581 9.966 13.581 11.118C13.581 12.378 13.239 13.116 12.555 13.332C12.249 13.44 11.781 13.494 11.151 13.494H5.859V16.221ZM18.2978 9.147C18.2978 8.733 18.3068 8.427 18.3248 8.229C18.3608 8.013 18.4418 7.77 18.5678 7.5C18.8198 7.032 19.5218 6.798 20.6738 6.798C21.5378 6.798 22.1498 6.951 22.5098 7.257C22.8158 7.509 22.9778 7.896 22.9958 8.418C23.0138 8.598 23.0228 8.859 23.0228 9.201V18.651C23.0228 19.065 23.0048 19.38 22.9688 19.596C22.9508 19.794 22.8698 20.028 22.7258 20.298C22.4918 20.766 21.7988 21 20.6468 21C19.5128 21 18.8198 20.757 18.5678 20.271C18.4418 20.001 18.3608 19.767 18.3248 19.569C18.3068 19.371 18.2978 19.056 18.2978 18.624V9.147ZM22.7258 4.152C22.5998 4.404 22.3658 4.584 22.0238 4.692C21.6818 4.8 21.2228 4.854 20.6468 4.854C20.0888 4.854 19.6388 4.8 19.2968 4.692C18.9548 4.584 18.7118 4.395 18.5678 4.125C18.4418 3.855 18.3608 3.621 18.3248 3.423C18.3068 3.207 18.2978 2.892 18.2978 2.478C18.2978 2.064 18.3068 1.758 18.3248 1.56C18.3608 1.344 18.4418 1.11 18.5678 0.857999C18.8198 0.371998 19.5218 0.128998 20.6738 0.128998C21.8078 0.128998 22.4918 0.371998 22.7258 0.857999C22.8698 1.128 22.9508 1.371 22.9688 1.587C23.0048 1.785 23.0228 2.091 23.0228 2.505C23.0228 2.919 23.0048 3.234 22.9688 3.45C22.9508 3.648 22.8698 3.882 22.7258 4.152ZM25.2876 19.731C24.9456 19.515 24.7746 19.173 24.7746 18.705C24.7746 18.237 25.1166 17.526 25.8006 16.572C25.9986 16.266 26.3136 16.113 26.7456 16.113C27.1956 16.113 27.7986 16.338 28.5546 16.788C29.3106 17.22 29.9946 17.436 30.6066 17.436C31.7046 17.436 32.2536 17.22 32.2536 16.788C32.2536 16.446 31.6506 16.194 30.4446 16.032C29.3106 15.87 28.1856 15.447 27.0696 14.763C26.5476 14.439 26.1156 13.935 25.7736 13.251C25.4316 12.549 25.2606 11.721 25.2606 10.767C25.2606 7.923 27.2136 6.501 31.1196 6.501C32.3976 6.501 33.7116 6.807 35.0616 7.419C35.6916 7.707 36.0066 8.067 36.0066 8.499C36.0066 8.931 35.8086 9.462 35.4126 10.092C35.0166 10.722 34.6116 11.037 34.1976 11.037C33.9816 11.037 33.5766 10.902 32.9826 10.632C32.4066 10.362 31.7766 10.227 31.0926 10.227C30.0306 10.227 29.4996 10.425 29.4996 10.821C29.4996 11.361 30.1116 11.712 31.3356 11.874C32.5236 12 33.6756 12.342 34.7916 12.9C35.3136 13.152 35.7456 13.593 36.0876 14.223C36.4476 14.835 36.6276 15.609 36.6276 16.545C36.6276 17.481 36.4476 18.282 36.0876 18.948C35.7456 19.596 35.2596 20.082 34.6296 20.406C33.4776 20.964 32.0286 21.243 30.2826 21.243C28.5546 21.243 26.8896 20.739 25.2876 19.731ZM52.4836 10.389C53.5456 11.649 54.0766 13.062 54.0766 14.628C54.0406 16.428 53.4196 17.94 52.2136 19.164C51.0256 20.37 49.5766 20.973 47.8666 20.973H40.7656C39.5056 20.973 38.7676 20.631 38.5516 19.947C38.4436 19.641 38.3896 19.173 38.3896 18.543V3.558C38.3896 3.126 38.3986 2.811 38.4166 2.613C38.4526 2.415 38.5426 2.181 38.6866 1.911C38.9386 1.425 39.6406 1.182 40.7926 1.182H47.5966C49.2526 1.182 50.6386 1.758 51.7546 2.91C52.9246 4.08 53.5096 5.484 53.5096 7.122C53.5096 8.31 53.1676 9.399 52.4836 10.389ZM49.2976 14.358C49.2976 13.926 49.2436 13.584 49.1356 13.332C49.0456 13.08 48.8836 12.9 48.6496 12.792C48.2896 12.648 47.7856 12.576 47.1376 12.576C46.4896 12.576 46.0036 12.45 45.6796 12.198C45.3556 11.946 45.1936 11.433 45.1936 10.659C45.1936 9.867 45.3556 9.345 45.6796 9.093C46.0216 8.841 46.5796 8.715 47.3536 8.715C48.0736 8.715 48.5056 8.526 48.6496 8.148C48.7036 7.95 48.7306 7.626 48.7306 7.176C48.7306 6.726 48.5776 6.411 48.2716 6.231C47.9836 6.051 47.5426 5.961 46.9486 5.961H43.1686V16.194H47.5966C48.7306 16.194 49.2976 15.582 49.2976 14.358ZM62.1626 20.946C60.3446 20.946 58.8326 20.262 57.6266 18.894C56.4386 17.508 55.8446 15.825 55.8446 13.845V9.12C55.8446 8.688 55.8536 8.373 55.8716 8.175C55.9076 7.977 55.9886 7.743 56.1146 7.473C56.3666 6.987 57.0686 6.744 58.2206 6.744C59.4806 6.744 60.2186 7.086 60.4346 7.77C60.5426 8.058 60.5966 8.517 60.5966 9.147V13.872C60.5966 14.61 60.8036 15.186 61.2176 15.6C61.6496 16.014 62.2166 16.221 62.9186 16.221C63.6386 16.221 64.2146 16.005 64.6466 15.573C65.0966 15.141 65.3216 14.574 65.3216 13.872V9.093C65.3216 8.679 65.3306 8.373 65.3486 8.175C65.3846 7.959 65.4746 7.716 65.6186 7.446C65.8526 6.978 66.5456 6.744 67.6976 6.744C68.8316 6.744 69.5246 6.987 69.7766 7.473C69.9026 7.743 69.9746 7.986 69.9926 8.202C70.0286 8.4 70.0466 8.706 70.0466 9.12V18.678C70.0466 19.074 70.0286 19.38 69.9926 19.596C69.9746 19.794 69.8936 20.019 69.7496 20.271C69.4796 20.739 68.7866 20.973 67.6706 20.973C66.5726 20.973 65.8976 20.757 65.6456 20.325C65.4656 20.019 65.3756 19.65 65.3756 19.218C65.3036 19.344 65.1416 19.524 64.8896 19.758C64.6376 19.992 64.3946 20.19 64.1606 20.352C63.5486 20.748 62.8826 20.946 62.1626 20.946ZM80.5887 13.872L84.1797 16.842C84.6297 17.22 84.9087 17.508 85.0167 17.706C85.1427 17.904 85.2057 18.093 85.2057 18.273C85.2057 18.705 84.9267 19.29 84.3687 20.028C83.7567 20.784 83.2167 21.162 82.7487 21.162C82.3527 21.162 81.8037 20.901 81.1017 20.379L80.8317 20.19C80.4177 19.848 79.7787 19.254 78.9147 18.408C78.0507 17.544 77.3937 16.932 76.9437 16.572V18.651C76.9437 19.065 76.9257 19.38 76.8897 19.596C76.8717 19.794 76.7907 20.028 76.6467 20.298C76.4127 20.766 75.7197 21 74.5677 21C73.4337 21 72.7407 20.757 72.4887 20.271C72.3627 20.001 72.2817 19.767 72.2457 19.569C72.2277 19.353 72.2187 19.038 72.2187 18.624V2.451C72.2187 2.037 72.2277 1.731 72.2457 1.533C72.2817 1.317 72.3627 1.074 72.4887 0.803999C72.7407 0.317999 73.4427 0.074999 74.5947 0.074999C75.4587 0.074999 76.0707 0.227999 76.4307 0.534C76.7367 0.786 76.8987 1.182 76.9167 1.722C76.9347 1.884 76.9437 2.136 76.9437 2.478V11.037C77.2677 10.767 77.7537 10.308 78.4017 9.66C79.0677 9.012 79.5627 8.553 79.8867 8.283L80.2107 8.067C80.8407 7.581 81.3807 7.338 81.8307 7.338C82.2807 7.338 82.7937 7.707 83.3697 8.445C83.9637 9.165 84.2607 9.732 84.2607 10.146C84.2607 10.56 83.9277 11.046 83.2617 11.604L80.5887 13.872Z" fill="currentColor"/>
</svg>
