<svg width="16" height="18" viewBox="0 0 16 18" fill="none" stroke="currentColor" xmlns="http://www.w3.org/2000/svg">
<path d="M15.0833 3.99984C12.9083 4.58317 10.3583 4.83317 8 4.83317C5.64167 4.83317 3.09167 4.58317 0.916667 3.99984L0.5 5.6665C2.05 6.08317 3.83333 6.35817 5.5 6.49984V17.3332H7.16667V12.3332H8.83333V17.3332H10.5V6.49984C12.1667 6.35817 13.95 6.08317 15.5 5.6665L15.0833 3.99984ZM8 3.99984C8.91667 3.99984 9.66667 3.24984 9.66667 2.33317C9.66667 1.4165 8.91667 0.666504 8 0.666504C7.08333 0.666504 6.33333 1.4165 6.33333 2.33317C6.33333 3.24984 7.08333 3.99984 8 3.99984Z" fill="#6B7280"/>
</svg>
